@startuml DiagramaDePacotes_Olimpiadas

package "GestaoOlimpiadas" {

  package "controller" {
    class AtletaController
    class CompeticaoController
    class LocalController
    class ResultadoController
    class MedalhaController
  }

  package "service" {
    class AtletaService
    class CompeticaoService
    class LocalService
    class ResultadoService
    class MedalhaService
  }

  package "repository" {
    interface AtletaRepository
    interface CompeticaoRepository
    interface LocalRepository
    interface PaisRepository
    interface ResultadoRepository
    interface MedalhaRepository
  }

  package "model" {
    class Atleta
    class Competicao
    class Local
    class Pais
    class Resultado
    class Medalha
    class InscricaoCompeticao
  }

  controller --> service    : <<access>>
  service    --> repository : <<access>>
  repository --> model      : <<import>>
  service    --> model      : <<import>>

}

@enduml